<?xml version="1.0" encoding="utf-8"?>
<svg version="1.0" xmlns="http://www.w3.org/2000/svg" viewBox="0 0 186.000000 139.000000">
<path fill="#fff" d="M26.8,10.2h47.5h47.5v13.1v13.1h-6.8h-6.6l-1-6.9l-1-6.9H92.9H79.1v18.1v18.1l3.2-1c1.7-0.6,9.9-1.2,18.3-1.7
	c19.2-1,28.5,1.4,36.1,9c6.9,6.9,8.5,12.8,9.5,33.8c0.8,19.2,0.3,17.8,9.4,19.2c2.1,0.3,2.9,1.7,3.2,5.7l0.4,5.1h-21.4h-21.5v-4.8
	c0-5.2,0.4-5.5,8.7-6.9l5.1-0.8V100c0-20.3-2.2-26.2-10.9-29.6c-6.6-2.8-17.8-2.9-30.5-0.6l-9,1.7l-0.4,22.3l-0.3,22.3l5.1,0.8
	c8.5,1.5,9,1.7,8.4,6.5l-0.4,4.5l-21.1,0.4l-21.1,0.4l0.4-5.2c0.4-4.8,0.8-5.2,5.7-6.1c2.9-0.4,5.8-1.4,6.6-2.2
	c0.8-0.8,1.1-18.9,1-46.7l-0.4-45.3l-10.6-0.4l-10.8-0.4v3.9c0,8.8-1.1,10.1-8.4,10.1h-6.8V23.3V10.2z"/>
</svg>
